<?xml version="1.0" encoding="UTF-8" standalone="no"?>
<svg
   xmlns:dc="http://purl.org/dc/elements/1.1/"
   xmlns:cc="http://creativecommons.org/ns#"
   xmlns:rdf="http://www.w3.org/1999/02/22-rdf-syntax-ns#"
   xmlns:svg="http://www.w3.org/2000/svg"
   xmlns="http://www.w3.org/2000/svg"
   xmlns:sodipodi="http://sodipodi.sourceforge.net/DTD/sodipodi-0.dtd"
   xmlns:inkscape="http://www.inkscape.org/namespaces/inkscape"
   width="40mm"
   height="40mm"
   viewBox="0 0 40 40"
   version="1.1"
   id="svg2145"
   inkscape:version="1.0 (4035a4fb49, 2020-05-01)"
   sodipodi:docname="gcampus-favicon.svg"
   inkscape:export-filename="D:\git-sync\gcampus\artwork\gcampus-favicon-1000x1000.png"
   inkscape:export-xdpi="635"
   inkscape:export-ydpi="635">
  <defs
     id="defs2139" />
  <sodipodi:namedview
     id="base"
     pagecolor="#ffffff"
     bordercolor="#666666"
     borderopacity="1.0"
     inkscape:pageopacity="0.0"
     inkscape:pageshadow="2"
     inkscape:zoom="3.3066438"
     inkscape:cx="33.374077"
     inkscape:cy="62.240373"
     inkscape:document-units="mm"
     inkscape:current-layer="layer1"
     inkscape:document-rotation="0"
     showgrid="false"
     inkscape:window-width="1680"
     inkscape:window-height="987"
     inkscape:window-x="-8"
     inkscape:window-y="-8"
     inkscape:window-maximized="1" />
  <metadata
     id="metadata2142">
    <rdf:RDF>
      <cc:Work
         rdf:about="">
        <dc:format>image/svg+xml</dc:format>
        <dc:type
           rdf:resource="http://purl.org/dc/dcmitype/StillImage" />
        <dc:title />
      </cc:Work>
    </rdf:RDF>
  </metadata>
  <g
     inkscape:label="Ebene 1"
     inkscape:groupmode="layer"
     id="layer1">
    <path
       id="path2809"
       style="fill:#ffffff;fill-opacity:1;stroke:none;stroke-width:2.45273;stroke-linecap:round;stroke-linejoin:round;stroke-miterlimit:4;stroke-dasharray:none;stroke-opacity:1"
       d="M 6.5921981,2.01 C 4.0536369,2.01 2.01,4.1281956 2.01,6.7591105 V 19.251896 21.3961 32.97932 C 2.01,35.75546 4.0536369,37.99 6.5921981,37.99 H 33.407263 C 35.945826,37.99 37.99,35.75546 37.99,32.97932 V 21.315368 19.159863 6.7585729 C 37.99,4.1276569 35.945826,2.01 33.407263,2.01 Z" />
    <g
       transform="matrix(0.6148166,0,0,0.6148166,41.883116,11.258223)"
       id="g891">
      <path
         id="path2180"
         style="fill:#05285b;fill-opacity:1;stroke:none;stroke-width:15.0863;stroke-linecap:round;stroke-linejoin:round;stroke-miterlimit:4;stroke-dasharray:none;stroke-opacity:1"
         d="m -192.85742,40.71875 c -3.2553,0.260786 -6.48415,0.715302 -9.6836,1.376953 -3.58298,0.741256 -7.13056,1.726359 -10.64843,2.935547 -3.51787,1.209192 -7.00503,2.642998 -10.46289,4.283203 -3.45789,1.640209 -6.88806,3.487192 -10.29102,5.521485 -3.40293,2.034016 -6.7797,4.254716 -10.13281,6.646484 -0.36972,0.263588 -0.73242,0.576676 -1.10156,0.845703 v 71.244145 c 0,17.07549 12.57116,30.82031 28.18554,30.82031 h 164.935549 c 15.614387,0 28.185547,-13.74482 28.185547,-30.82031 V 61.828125 c -1.318779,-0.767588 -2.636208,-1.560335 -3.960937,-2.158203 -1.908058,-0.86146 -3.822998,-1.554451 -5.742188,-2.097656 -1.919164,-0.542922 -3.842673,-0.935018 -5.771484,-1.201172 -1.928837,-0.264711 -3.861798,-0.399388 -5.798828,-0.427735 -1.937023,-0.02574 -3.878515,0.05681 -5.822266,0.228516 -1.943747,0.171715 -3.890824,0.431728 -5.839844,0.761719 -1.949045,0.32999 -3.90066,0.729539 -5.853515,1.177734 -3.90567,0.896655 -7.818689,1.987846 -11.736328,3.117188 -3.917643,1.129058 -7.838725,2.296029 -11.759766,3.341796 -3.921041,1.045486 -7.841966,1.971516 -11.757812,2.617188 -1.957936,0.322545 -3.916088,0.575157 -5.871098,0.738281 -1.95502,0.163125 -3.90638,0.237519 -5.85742,0.203125 -1.94106,-0.03521 -3.8083,-0.247182 -5.61719,-0.603515 -1.80888,-0.356319 -3.56023,-0.857898 -5.26757,-1.472657 -1.70734,-0.615042 -3.37141,-1.341827 -5.00782,-2.152343 -1.6364,-0.810516 -3.24569,-1.704554 -4.84179,-2.648438 -3.1922,-1.887488 -6.33415,-3.979117 -9.54883,-6.023437 -1.60734,-1.022306 -3.23174,-2.032358 -4.89063,-3 -1.65889,-0.967639 -3.35268,-1.892172 -5.09375,-2.742188 -2.63597,-1.287609 -5.25141,-2.427751 -7.84765,-3.427734 -0.81704,-0.314695 -1.62827,-0.591792 -2.44141,-0.878906 a 43.926214,43.926214 0 0 0 -0.68945,7.75 43.926214,43.926214 0 0 0 43.92578,43.925781 A 43.926214,43.926214 0 0 0 -95,90.970703 l 16.472656,28.531247 a 76.870866,76.870866 0 0 1 -38.435546,10.29688 76.870866,76.870866 0 0 1 -76.86914,-76.869142 76.870866,76.870866 0 0 1 0.97461,-12.210938 z"
         transform="scale(0.26458333)" />
      <path
         id="path2182"
         style="fill:#0d6efd;fill-opacity:1;stroke:none;stroke-width:14.6865;stroke-linecap:round;stroke-linejoin:round;stroke-miterlimit:4;stroke-dasharray:none;stroke-opacity:1"
         d="m -52.056641,-56.914062 -164.935549,0.002 c -15.61438,0 -28.18554,13.026721 -28.18554,29.208984 v 90.03125 c 0.36914,-0.269027 0.73184,-0.580162 1.10156,-0.84375 3.35311,-2.391768 6.72988,-4.61442 10.13281,-6.648437 3.40296,-2.034293 6.83313,-3.881276 10.29102,-5.521485 3.45786,-1.640205 6.94306,-3.072058 10.46093,-4.28125 3.51788,-1.209188 7.06741,-2.194291 10.65039,-2.935547 3.19944,-0.661651 6.42844,-1.117895 9.6836,-1.378906 a 76.870866,76.870866 0 0 1 75.89453,-64.660156 76.870866,76.870866 0 0 1 38.437499,10.298828 L -95,14.888672 a 43.926214,43.926214 0 0 0 -21.96289,-5.8847658 43.926214,43.926214 0 0 0 -0.17383,0 43.926214,43.926214 0 0 0 -43.0625,36.1777348 c 0.81328,0.286909 1.62444,0.562288 2.44141,0.876953 2.59624,0.999983 5.21168,2.140125 7.84765,3.427734 1.74107,0.850016 3.43291,1.776502 5.0918,2.744141 1.65889,0.967642 3.28524,1.977694 4.89258,3 3.21468,2.04432 6.35663,4.135949 9.54883,6.023437 1.5961,0.943884 3.20539,1.835969 4.84179,2.646485 1.63641,0.810516 3.30048,1.539254 5.00782,2.154297 1.70734,0.614759 3.45869,1.116337 5.26757,1.472656 1.80889,0.356334 3.67613,0.566356 5.61719,0.601562 1.95104,0.03439 3.9024,-0.04 5.85742,-0.203125 1.95501,-0.163124 3.913162,-0.415736 5.871098,-0.738281 3.915847,-0.645672 7.836771,-1.571702 11.757812,-2.617188 3.921041,-1.045768 7.84017,-2.212738 11.757812,-3.341796 3.91764,-1.129342 7.832612,-2.220533 11.738282,-3.117188 1.952855,-0.448195 3.90447,-0.847744 5.853515,-1.177734 1.94902,-0.329991 3.896097,-0.590004 5.839844,-0.761719 1.943751,-0.171704 3.885243,-0.254254 5.822266,-0.228516 1.93703,0.02835 3.869991,0.163024 5.798828,0.427735 1.92881,0.266154 3.85232,0.65825 5.771484,1.201172 1.91919,0.543205 3.83413,1.236196 5.742188,2.097656 1.324729,0.597868 2.642158,1.392568 3.960937,2.160156 v -89.535156 c 0,-16.182259 -12.571161,-29.208985 -28.185547,-29.208984 z"
         transform="scale(0.26458333)" />
    </g>
  </g>
</svg>
