<?xml version="1.0" encoding="UTF-8" standalone="no"?>
<!DOCTYPE svg PUBLIC "-//W3C//DTD SVG 1.1//EN" "http://www.w3.org/Graphics/SVG/1.1/DTD/svg11.dtd">
<svg width="100%" height="100%" viewBox="0 0 114 114" version="1.1" xmlns="http://www.w3.org/2000/svg" xmlns:xlink="http://www.w3.org/1999/xlink" xml:space="preserve" xmlns:serif="http://www.serif.com/" style="fill-rule:evenodd;clip-rule:evenodd;stroke-linejoin:round;stroke-miterlimit:2;">
    <g id="Ebene-1" serif:id="Ebene 1">
        <path id="path2809" d="M18.687,5.698C11.491,5.698 5.698,11.702 5.698,19.16L5.698,93.485C5.698,101.354 11.491,107.688 18.687,107.688L94.698,107.688C101.894,107.688 107.688,101.354 107.688,93.485L107.688,19.158C107.688,11.7 101.894,5.698 94.698,5.698L18.687,5.698Z" style="fill:white;fill-rule:nonzero;"/>
        <g id="g891" transform="matrix(0.614817,0,0,0.614817,118.724,31.9131)">
            <g id="path2180" transform="matrix(0.264583,0,0,0.264583,0,0)">
                <path d="M-546.682,115.423C-555.91,116.162 -565.063,117.451 -574.132,119.326C-584.289,121.428 -594.345,124.22 -604.317,127.648C-614.288,131.075 -624.173,135.14 -633.975,139.789C-643.777,144.438 -653.5,149.674 -663.147,155.44C-672.793,161.206 -682.365,167.501 -691.869,174.281C-692.917,175.028 -693.946,175.916 -694.992,176.678L-694.992,378.63C-694.992,427.033 -659.357,465.995 -615.096,465.995L-147.562,465.995C-103.301,465.995 -67.666,427.033 -67.666,378.63L-67.666,175.261C-71.404,173.085 -75.139,170.838 -78.894,169.143C-84.303,166.701 -89.731,164.737 -95.171,163.197C-100.611,161.658 -106.064,160.547 -111.531,159.792C-116.999,159.042 -122.478,158.66 -127.969,158.58C-133.46,158.507 -138.963,158.741 -144.473,159.227C-149.983,159.714 -155.502,160.451 -161.027,161.387C-166.552,162.322 -172.084,163.455 -177.619,164.725C-188.691,167.267 -199.783,170.36 -210.888,173.561C-221.993,176.762 -233.108,180.07 -244.222,183.034C-255.337,185.998 -266.452,188.623 -277.552,190.453C-283.102,191.367 -288.652,192.083 -294.194,192.546C-299.736,193.008 -305.267,193.219 -310.798,193.121C-316.3,193.022 -321.593,192.421 -326.721,191.411C-331.848,190.401 -336.813,188.979 -341.652,187.236C-346.492,185.493 -351.209,183.432 -355.848,181.135C-360.486,178.837 -365.048,176.303 -369.572,173.628C-378.621,168.277 -387.528,162.348 -396.64,156.553C-401.196,153.655 -405.801,150.792 -410.503,148.049C-415.206,145.306 -420.007,142.686 -424.942,140.276C-432.414,136.626 -439.828,133.394 -447.187,130.56C-449.504,129.668 -451.803,128.882 -454.108,128.068C-455.408,135.319 -456.062,142.671 -456.062,150.037C-456.062,218.343 -399.854,274.55 -331.548,274.551C-309.693,274.551 -288.219,268.797 -269.291,257.87L-222.597,338.746C-255.721,357.867 -293.302,367.935 -331.548,367.934C-451.082,367.931 -549.442,269.571 -549.445,150.037C-549.446,138.444 -548.523,126.869 -546.682,115.423Z" style="fill:rgb(21,48,81);fill-rule:nonzero;"/>
            </g>
            <g id="path2182" transform="matrix(0.264583,0,0,0.264583,0,0)">
                <path d="M-147.562,-161.331L-615.096,-161.326C-659.357,-161.326 -694.992,-124.399 -694.992,-78.528L-694.992,176.678C-693.946,175.916 -692.917,175.034 -691.869,174.287C-682.365,167.507 -672.793,161.206 -663.147,155.441C-653.5,149.674 -643.777,144.439 -633.975,139.789C-624.173,135.14 -614.294,131.081 -604.322,127.653C-594.35,124.226 -584.289,121.433 -574.132,119.332C-565.063,117.457 -555.91,116.163 -546.682,115.423C-529.761,10.251 -438.074,-67.865 -331.548,-67.865C-293.299,-67.866 -255.716,-57.796 -222.592,-38.672L-269.291,42.204C-288.219,31.277 -309.693,25.523 -331.548,25.523C-331.713,25.523 -331.877,25.523 -332.041,25.523C-391.908,25.761 -443.548,69.145 -454.108,128.074C-451.803,128.887 -449.503,129.668 -447.187,130.56C-439.828,133.394 -432.414,136.626 -424.942,140.276C-420.007,142.686 -415.211,145.312 -410.509,148.055C-405.806,150.798 -401.196,153.661 -396.64,156.559C-387.528,162.354 -378.621,168.283 -369.572,173.633C-365.048,176.309 -360.486,178.837 -355.848,181.135C-351.209,183.432 -346.492,185.498 -341.652,187.242C-336.813,188.984 -331.848,190.406 -326.721,191.416C-321.593,192.426 -316.3,193.022 -310.798,193.121C-305.267,193.219 -299.736,193.008 -294.194,192.546C-288.652,192.083 -283.102,191.367 -277.552,190.453C-266.452,188.623 -255.337,185.998 -244.222,183.034C-233.108,180.07 -221.998,176.762 -210.893,173.561C-199.788,170.36 -188.691,167.267 -177.619,164.725C-172.084,163.455 -166.552,162.322 -161.027,161.387C-155.502,160.451 -149.983,159.714 -144.473,159.227C-138.963,158.741 -133.46,158.507 -127.969,158.58C-122.478,158.66 -116.999,159.042 -111.531,159.792C-106.064,160.547 -100.611,161.658 -95.171,163.197C-89.731,164.737 -84.303,166.701 -78.894,169.143C-75.139,170.838 -71.404,173.091 -67.666,175.266L-67.666,-78.534C-67.666,-124.405 -103.301,-161.331 -147.562,-161.331Z" style="fill:rgb(39,96,164);fill-rule:nonzero;"/>
            </g>
        </g>
    </g>
</svg>
