<?xml version="1.0" encoding="UTF-8" standalone="no"?>
<!DOCTYPE svg PUBLIC "-//W3C//DTD SVG 1.1//EN" "http://www.w3.org/Graphics/SVG/1.1/DTD/svg11.dtd">
<svg width="100%" height="100%" viewBox="0 0 114 114" version="1.1" xmlns="http://www.w3.org/2000/svg" xmlns:xlink="http://www.w3.org/1999/xlink" xml:space="preserve" xmlns:serif="http://www.serif.com/" style="fill-rule:evenodd;clip-rule:evenodd;stroke-linejoin:round;stroke-miterlimit:2;">
    <g id="Ebene-1" serif:id="Ebene 1">
        <path id="path2809" d="M18.687,5.698C11.491,5.698 5.698,11.702 5.698,19.16L5.698,93.485C5.698,101.354 11.491,107.688 18.687,107.688L94.698,107.688C101.894,107.688 107.688,101.354 107.688,93.485L107.688,19.158C107.688,11.7 101.894,5.698 94.698,5.698L18.687,5.698Z" style="fill:white;fill-rule:nonzero;"/>
        <g id="g2989" transform="matrix(1,0,0,1,-20.6829,3.18198)">
            <path id="path2927" d="M39.348,2.487C35.468,2.487 32.007,4.242 29.629,7.019L31.565,7.019L31.565,9.305L28.047,9.305C27.292,10.683 26.773,12.214 26.526,13.844L38.875,13.844L38.875,16.129L26.352,16.129L26.352,20.671L31.565,20.671L31.565,22.954L26.352,22.954L26.352,27.495L31.565,27.495L31.565,29.779L26.352,29.779L26.352,34.326L31.565,34.326L31.565,36.605L26.352,36.605L26.352,41.151L38.875,41.151L38.875,43.43L26.352,43.43L26.352,47.976L31.565,47.976L31.565,50.255L26.352,50.255L26.352,54.801L30.283,54.801C30.699,54.539 31.115,54.266 31.533,54.016C33.102,53.078 34.684,52.226 36.279,51.47C37.873,50.714 39.48,50.054 41.102,49.496C42.724,48.939 44.361,48.484 46.013,48.142C47.665,47.801 49.334,47.571 51.018,47.462C51.116,47.455 51.214,47.453 51.313,47.448C54.25,30.535 69.071,18.066 86.236,18.066L86.238,18.066C92.459,18.066 98.572,19.704 103.96,22.815L96.364,35.972C93.285,34.194 89.792,33.258 86.238,33.258C86.211,33.258 86.184,33.258 86.157,33.258C76.453,33.296 68.074,40.303 66.317,49.846C66.433,49.889 66.547,49.925 66.662,49.969C67.86,50.43 69.066,50.956 70.282,51.549C71.084,51.941 71.864,52.369 72.629,52.815C73.394,53.261 74.144,53.726 74.885,54.198C76.368,55.14 77.816,56.106 79.288,56.976C80.024,57.411 80.766,57.822 81.521,58.196C82.275,58.569 83.043,58.906 83.83,59.189C84.618,59.473 85.425,59.704 86.259,59.869C87.093,60.033 87.954,60.13 88.849,60.146C89.749,60.162 90.648,60.127 91.55,60.052C92.451,59.976 93.355,59.86 94.257,59.711C96.063,59.414 97.87,58.987 99.678,58.505C101.486,58.023 103.295,57.484 105.101,56.964C106.908,56.443 108.712,55.941 110.513,55.527C111.413,55.321 112.313,55.136 113.211,54.984C114.11,54.832 115.008,54.712 115.904,54.633C116.8,54.554 117.696,54.516 118.589,54.527C119.482,54.541 120.374,54.602 121.263,54.724C122.153,54.847 123.04,55.028 123.925,55.278C124.81,55.529 125.692,55.847 126.572,56.245C127.183,56.52 127.791,56.887 128.399,57.241L128.399,15.955C128.399,8.493 122.602,2.487 115.402,2.487L39.348,2.487ZM29.617,7.033C29.331,7.369 29.06,7.719 28.807,8.083C29.061,7.72 29.33,7.369 29.617,7.033ZM26.523,13.867C26.476,14.183 26.433,14.501 26.407,14.824C26.436,14.502 26.476,14.183 26.523,13.867ZM26.352,57.08L26.352,57.471C26.522,57.347 26.69,57.203 26.86,57.081L26.862,57.08L26.352,57.08Z" style="fill:rgb(39,96,164);fill-rule:nonzero;"/>
            <path id="path2966" d="M51.313,47.448C51.214,47.453 51.116,47.455 51.018,47.462C49.333,47.571 47.665,47.801 46.013,48.142C44.361,48.484 42.724,48.939 41.102,49.496C39.48,50.054 37.873,50.714 36.279,51.47C34.684,52.226 33.102,53.078 31.533,54.016C31.115,54.266 30.699,54.539 30.283,54.801L31.565,54.801L31.565,57.08L26.862,57.08L26.86,57.081C26.69,57.203 26.522,57.347 26.352,57.471L26.352,61.626L31.565,61.626L31.565,63.911L26.352,63.911L26.352,68.452L38.875,68.452L38.875,70.736L26.352,70.736L26.352,75.277L31.565,75.277L31.565,77.562L26.352,77.562L26.352,82.102L31.565,82.102L31.565,84.387L26.352,84.387L26.352,88.933L31.565,88.933L31.565,91.212L26.393,91.212C26.483,92.813 26.802,94.345 27.334,95.757L38.875,95.757L38.875,98.036L28.433,98.036C30.743,101.949 34.755,104.535 39.348,104.535L115.402,104.535C122.602,104.535 128.399,98.197 128.399,90.323L128.399,57.241C127.791,56.887 127.183,56.52 126.572,56.245C125.692,55.847 124.81,55.529 123.925,55.278C123.04,55.028 122.153,54.847 121.263,54.724C120.374,54.602 119.482,54.541 118.589,54.527C117.696,54.515 116.8,54.554 115.904,54.633C115.008,54.712 114.11,54.832 113.211,54.984C112.313,55.136 111.413,55.321 110.513,55.527C108.712,55.941 106.908,56.443 105.101,56.964C103.295,57.484 101.486,58.023 99.678,58.505C97.87,58.987 96.063,59.414 94.257,59.711C93.355,59.86 92.451,59.976 91.55,60.052C90.648,60.127 89.749,60.162 88.849,60.146C87.954,60.13 87.093,60.033 86.259,59.869C85.425,59.704 84.618,59.473 83.83,59.189C83.043,58.906 82.275,58.569 81.521,58.196C80.766,57.822 80.024,57.411 79.288,56.976C77.816,56.106 76.368,55.14 74.885,54.198C74.144,53.726 73.394,53.261 72.629,52.815C71.864,52.369 71.084,51.941 70.282,51.549C69.066,50.956 67.86,50.43 66.662,49.969C66.547,49.925 66.433,49.889 66.317,49.846C66.094,51.055 65.982,52.282 65.982,53.512C65.982,64.624 75.125,73.767 86.236,73.767C89.791,73.767 93.285,72.831 96.364,71.053L103.96,84.21C98.571,87.32 92.458,88.957 86.236,88.957C66.792,88.957 50.791,72.957 50.79,53.512C50.79,51.48 50.965,49.451 51.313,47.448L51.313,47.448Z" style="fill:rgb(21,48,81);fill-rule:nonzero;"/>
        </g>
    </g>
</svg>
