<?xml version="1.0" encoding="UTF-8" standalone="no"?>
<svg
   xmlns:dc="http://purl.org/dc/elements/1.1/"
   xmlns:cc="http://creativecommons.org/ns#"
   xmlns:rdf="http://www.w3.org/1999/02/22-rdf-syntax-ns#"
   xmlns:svg="http://www.w3.org/2000/svg"
   xmlns="http://www.w3.org/2000/svg"
   xmlns:sodipodi="http://sodipodi.sourceforge.net/DTD/sodipodi-0.dtd"
   xmlns:inkscape="http://www.inkscape.org/namespaces/inkscape"
   inkscape:export-ydpi="635"
   inkscape:export-xdpi="635"
   inkscape:export-filename="D:\git-sync\gcampus\artwork\gcampus-logo-1000x1000.png"
   sodipodi:docname="gcampus-logo.svg"
   inkscape:version="1.0 (4035a4fb49, 2020-05-01)"
   id="svg2145"
   version="1.1"
   viewBox="0 0 40 40"
   height="40mm"
   width="40mm">
  <defs
     id="defs2139" />
  <sodipodi:namedview
     inkscape:window-maximized="1"
     inkscape:window-y="-8"
     inkscape:window-x="-8"
     inkscape:window-height="987"
     inkscape:window-width="1680"
     showgrid="false"
     inkscape:document-rotation="0"
     inkscape:current-layer="layer1"
     inkscape:document-units="mm"
     inkscape:cy="81.938682"
     inkscape:cx="25.718764"
     inkscape:zoom="2.8284271"
     inkscape:pageshadow="2"
     inkscape:pageopacity="0.0"
     borderopacity="1.0"
     bordercolor="#666666"
     pagecolor="#ffffff"
     id="base" />
  <metadata
     id="metadata2142">
    <rdf:RDF>
      <cc:Work
         rdf:about="">
        <dc:format>image/svg+xml</dc:format>
        <dc:type
           rdf:resource="http://purl.org/dc/dcmitype/StillImage" />
        <dc:title></dc:title>
      </cc:Work>
    </rdf:RDF>
  </metadata>
  <g
     id="layer1"
     inkscape:groupmode="layer"
     inkscape:label="Ebene 1">
    <path
       d="M 6.5921981,2.01 C 4.0536369,2.01 2.01,4.1281956 2.01,6.7591105 V 19.251896 21.3961 32.97932 C 2.01,35.75546 4.0536369,37.99 6.5921981,37.99 H 33.407263 C 35.945826,37.99 37.99,35.75546 37.99,32.97932 V 21.315368 19.159863 6.7585729 C 37.99,4.1276569 35.945826,2.01 33.407263,2.01 Z"
       style="fill:#ffffff;fill-opacity:1;stroke:none;stroke-width:2.45273;stroke-linecap:round;stroke-linejoin:round;stroke-miterlimit:4;stroke-dasharray:none;stroke-opacity:1"
       id="path2809" />
    <g
       transform="translate(-7.296458,1.1225321)"
       id="g2989">
      <path
         id="path2927"
         style="fill:#0d6efd;fill-opacity:1;stroke:none;stroke-width:2.38905;stroke-linecap:round;stroke-linejoin:round;stroke-miterlimit:4;stroke-dasharray:none;stroke-opacity:1"
         d="m 13.881214,0.87746789 c -1.368883,0 -2.58993,0.61916381 -3.428597,1.59881501 h 0.68281 V 3.2824216 H 9.8941973 C 9.6280668,3.7686833 9.444769,4.3088282 9.3578577,4.8839303 H 13.714281 V 5.690069 H 9.2964684 v 1.6020453 h 1.8389586 v 0.805601 H 9.2964684 V 9.699761 h 1.8389586 v 0.805601 H 9.2964684 v 1.604199 h 1.8389586 v 0.803986 H 9.2964684 v 1.603662 h 4.4178126 v 0.803985 H 9.2964684 v 1.603661 H 11.135427 V 17.72884 H 9.2964684 v 1.603662 h 1.3866256 c 0.146975,-0.09249 0.293451,-0.188579 0.441027,-0.27679 0.553544,-0.330921 1.111699,-0.631411 1.674179,-0.898223 0.562483,-0.266814 1.129386,-0.499584 1.701645,-0.696285 0.57226,-0.1967 1.149506,-0.357072 1.732337,-0.477652 0.582824,-0.120529 1.171489,-0.201698 1.765725,-0.240172 0.0346,-0.0022 0.06931,-0.0029 0.103923,-0.0049 A 12.50444,12.504628 0 0 1 30.422155,6.3733782 h 5.38e-4 a 12.50444,12.504628 0 0 1 6.251925,1.6752829 l -2.679551,4.6413559 a 7.1453945,7.1455014 0 0 0 -3.572374,-0.957458 7.1453945,7.1455014 0 0 0 -0.02854,0 7.1453945,7.1455014 0 0 0 -6.998819,5.851911 c 0.04064,0.01526 0.08099,0.02794 0.121701,0.04362 0.422348,0.16266 0.847996,0.347894 1.276771,0.55735 0.2832,0.138264 0.55837,0.289012 0.828204,0.44642 0.269834,0.157399 0.534441,0.321583 0.795895,0.487884 0.522911,0.332548 1.033742,0.673037 1.553019,0.980074 0.259644,0.153534 0.521615,0.298417 0.78782,0.430264 0.266159,0.131835 0.536994,0.250519 0.81474,0.350566 0.277706,0.1 0.56247,0.181663 0.856749,0.239634 0.294228,0.05797 0.598087,0.09226 0.913825,0.09801 0.317371,0.0056 0.634575,-0.0067 0.952597,-0.03339 0.318023,-0.02655 0.636807,-0.06762 0.955289,-0.120086 0.636971,-0.105026 1.274387,-0.255355 1.912196,-0.425418 0.637856,-0.170129 1.276025,-0.360224 1.913272,-0.543888 0.6373,-0.183714 1.27362,-0.360871 1.908965,-0.506731 0.317647,-0.0729 0.635013,-0.138013 0.952057,-0.191707 0.317041,-0.05366 0.633752,-0.09593 0.949907,-0.123856 0.316201,-0.02793 0.632126,-0.04133 0.947212,-0.03716 0.315089,0.0047 0.629661,0.02642 0.943443,0.06946 0.313735,0.04329 0.626936,0.107148 0.939135,0.195477 0.3122,0.08836 0.623368,0.200735 0.93375,0.340872 0.215467,0.09725 0.430051,0.226766 0.644578,0.351643 V 5.6286798 c 0,-2.6323764 -2.045311,-4.75121191 -4.585283,-4.75121191 z M 10.44831,2.4811295 C 10.347169,2.5996 10.251796,2.7229797 10.162369,2.8516197 10.251913,2.7233413 10.347138,2.5996146 10.44831,2.4811295 Z M 9.3567792,4.8920073 C 9.3401064,5.0035918 9.324955,5.115589 9.3158579,5.2296484 9.3261742,5.1160194 9.3400543,5.003547 9.3567792,4.8920073 Z M 9.2964653,20.136487 v 0.137856 c 0.060043,-0.04377 0.1191721,-0.09444 0.1793182,-0.137318 0,0 5.409e-4,-5.38e-4 5.409e-4,-5.38e-4 z" />
      <path
         id="path2966"
         style="fill:#05285b;fill-opacity:1;stroke:none;stroke-width:2.45408;stroke-linecap:round;stroke-linejoin:round;stroke-miterlimit:4;stroke-dasharray:none;stroke-opacity:1"
         d="m 18.10193,16.738483 c -0.03462,0.002 -0.06934,0.0026 -0.103934,0.0049 -0.594236,0.03847 -1.182897,0.119644 -1.765724,0.240173 -0.582828,0.12058 -1.160078,0.280952 -1.732338,0.477652 -0.572259,0.196701 -1.139162,0.429471 -1.701644,0.696284 -0.562484,0.266812 -1.120635,0.567303 -1.674179,0.898223 -0.147577,0.08821 -0.294053,0.184297 -0.441028,0.276791 h 0.452335 V 20.13649 H 9.4763171 l -5.408e-4,5.39e-4 c -0.060147,0.04288 -0.1192743,0.09356 -0.1793183,0.137318 v 1.465806 h 1.83896 v 0.806139 h -1.83896 v 1.602046 h 4.417812 v 0.8056 H 9.296458 v 1.602046 h 1.83896 v 0.806139 h -1.83896 v 1.601507 h 1.83896 v 0.80614 h -1.83896 v 1.603662 h 1.83896 v 0.803984 H 9.3109988 c 0.031762,0.565055 0.1439781,1.105355 0.331712,1.603663 H 13.71427 v 0.803983 h -3.683843 c 0.814994,1.380139 2.230414,2.292406 3.850777,2.292406 h 26.829968 c 2.539972,0 4.585283,-2.235783 4.585283,-5.013464 V 20.193517 c -0.214526,-0.124877 -0.42911,-0.254397 -0.644577,-0.351643 -0.310382,-0.140137 -0.621551,-0.252515 -0.933751,-0.340872 -0.3122,-0.08833 -0.625401,-0.152189 -0.939135,-0.195476 -0.313783,-0.04305 -0.628354,-0.06478 -0.943443,-0.06947 -0.315086,-0.0042 -0.63101,0.0093 -0.947212,0.03716 -0.316155,0.02793 -0.632866,0.0702 -0.949907,0.123855 -0.317043,0.0537 -0.63441,0.118804 -0.952057,0.191707 -0.635344,0.145861 -1.271666,0.323017 -1.908965,0.506731 -0.637247,0.183665 -1.275415,0.37376 -1.913271,0.543888 -0.63781,0.170064 -1.275225,0.320392 -1.912196,0.425418 -0.318483,0.05247 -0.63727,0.09354 -0.955289,0.120086 -0.318023,0.02672 -0.635226,0.03902 -0.952599,0.03339 -0.315736,-0.0057 -0.619596,-0.04004 -0.913824,-0.09801 -0.294279,-0.05797 -0.579042,-0.139637 -0.856748,-0.239634 -0.277747,-0.100048 -0.548581,-0.218731 -0.81474,-0.350566 -0.266206,-0.131847 -0.528177,-0.27673 -0.787821,-0.430264 -0.519276,-0.307036 -1.030108,-0.647525 -1.553018,-0.980075 -0.261452,-0.1663 -0.526061,-0.330484 -0.795895,-0.487883 -0.269834,-0.157407 -0.545004,-0.308156 -0.828204,-0.446419 -0.428775,-0.209457 -0.854424,-0.394691 -1.276772,-0.557351 -0.0407,-0.01568 -0.08105,-0.02836 -0.1217,-0.04362 a 7.1453945,7.1455014 0 0 0 -0.11847,1.293484 7.1453945,7.1455014 0 0 0 7.14529,7.145396 7.1453945,7.1455014 0 0 0 3.572912,-0.957458 l 2.67955,4.641357 a 12.50444,12.504628 0 0 1 -6.252462,1.674745 12.50444,12.504628 0 0 1 -12.504392,-12.50404 12.50444,12.504628 0 0 1 0.184166,-2.139471 z" />
    </g>
  </g>
</svg>
