<?xml version="1.0" encoding="UTF-8" standalone="no"?>
<!DOCTYPE svg PUBLIC "-//W3C//DTD SVG 1.1//EN" "http://www.w3.org/Graphics/SVG/1.1/DTD/svg11.dtd">
<svg width="100%" height="100%" viewBox="0 0 48 48" version="1.1" xmlns="http://www.w3.org/2000/svg" xmlns:xlink="http://www.w3.org/1999/xlink" xml:space="preserve" xmlns:serif="http://www.serif.com/" style="fill-rule:evenodd;clip-rule:evenodd;stroke-linecap:round;stroke-linejoin:round;stroke-miterlimit:1.5;">
    <g transform="matrix(1.21219,0,0,1.36684,-5.14037,-7.26154)">
        <ellipse cx="24.04" cy="22.871" rx="16.499" ry="14.632" style="fill:rgb(2,0,28);"/>
    </g>
    <g transform="matrix(0.743132,0,0,1.06447,3.2839,-5.31585)">
        <path d="M10.261,24C10.261,24 14.975,20.425 17.911,20.425C20.847,20.425 24.941,24 27.877,24C30.813,24 34.648,20.425 37.583,20.425C40.519,20.425 45.492,24 45.492,24" style="fill:none;stroke:white;stroke-width:2.04px;"/>
    </g>
    <g transform="matrix(0.743132,0,0,1.06447,3.2839,0.359753)">
        <path d="M10.261,24C10.261,24 14.975,20.425 17.911,20.425C20.847,20.425 24.941,24 27.877,24C30.813,24 34.648,20.425 37.583,20.425C40.519,20.425 45.492,24 45.492,24" style="fill:none;stroke:white;stroke-width:2.04px;"/>
    </g>
    <g transform="matrix(0.743132,0,0,1.06447,3.2839,6.02653)">
        <path d="M10.261,24C10.261,24 14.975,20.425 17.911,20.425C20.847,20.425 24.941,24 27.877,24C30.813,24 34.648,20.425 37.583,20.425C40.519,20.425 45.492,24 45.492,24" style="fill:none;stroke:white;stroke-width:2.04px;"/>
    </g>
</svg>
