<?xml version="1.0" encoding="UTF-8" standalone="no"?>
<svg
   xmlns:dc="http://purl.org/dc/elements/1.1/"
   xmlns:cc="http://creativecommons.org/ns#"
   xmlns:rdf="http://www.w3.org/1999/02/22-rdf-syntax-ns#"
   xmlns:svg="http://www.w3.org/2000/svg"
   xmlns="http://www.w3.org/2000/svg"
   xmlns:sodipodi="http://sodipodi.sourceforge.net/DTD/sodipodi-0.dtd"
   xmlns:inkscape="http://www.inkscape.org/namespaces/inkscape"
   width="210mm"
   height="297mm"
   viewBox="0 0 210 297"
   version="1.1"
   id="svg2037"
   sodipodi:docname="background.svg"
   inkscape:version="1.0 (4035a4fb49, 2020-05-01)">
  <defs
     id="defs2031">
    <rect
       id="rect2288"
       height="57.297043"
       width="148.03365"
       y="127.50059"
       x="57.492596" />
    <rect
       id="rect1991"
       height="57.297043"
       width="148.03365"
       y="127.50059"
       x="57.492596" />
    <rect
       x="464.7247"
       y="337.09711"
       width="169.09663"
       height="18.649532"
       id="rect2290" />
    <rect
       x="464.7247"
       y="337.09711"
       width="169.09663"
       height="18.649532"
       id="rect1994" />
    <clipPath
       clipPathUnits="userSpaceOnUse"
       id="clipPath2349">
      <rect
         y="1351.8851"
         x="300.95294"
         height="436.32401"
         width="451.65652"
         id="rect2351"
         style="fill:none;fill-opacity:1;stroke:#000000;stroke-width:0.5895;stroke-miterlimit:4;stroke-dasharray:none;stroke-opacity:1" />
    </clipPath>
    <clipPath
       clipPathUnits="userSpaceOnUse"
       id="clipPath2343">
      <rect
         y="1351.8851"
         x="300.95294"
         height="436.32401"
         width="451.65652"
         id="rect2345"
         style="fill:none;fill-opacity:1;stroke:#000000;stroke-width:0.5895;stroke-miterlimit:4;stroke-dasharray:none;stroke-opacity:1" />
    </clipPath>
    <clipPath
       clipPathUnits="userSpaceOnUse"
       id="clipPath2002">
      <rect
         y="1351.8851"
         x="300.95294"
         height="436.32401"
         width="451.65652"
         id="rect2000"
         style="fill:none;fill-opacity:1;stroke:#000000;stroke-width:0.5895;stroke-miterlimit:4;stroke-dasharray:none;stroke-opacity:1" />
    </clipPath>
    <clipPath
       clipPathUnits="userSpaceOnUse"
       id="clipPath2006">
      <rect
         y="1351.8851"
         x="300.95294"
         height="436.32401"
         width="451.65652"
         id="rect2004"
         style="fill:none;fill-opacity:1;stroke:#000000;stroke-width:0.5895;stroke-miterlimit:4;stroke-dasharray:none;stroke-opacity:1" />
    </clipPath>
  </defs>
  <sodipodi:namedview
     id="base"
     pagecolor="#ffffff"
     bordercolor="#666666"
     borderopacity="1.0"
     inkscape:pageopacity="0.0"
     inkscape:pageshadow="2"
     inkscape:zoom="0.95671568"
     inkscape:cx="349.07227"
     inkscape:cy="217.10242"
     inkscape:document-units="mm"
     inkscape:current-layer="layer1"
     inkscape:document-rotation="0"
     showgrid="false"
     inkscape:window-width="1680"
     inkscape:window-height="987"
     inkscape:window-x="-8"
     inkscape:window-y="-8"
     inkscape:window-maximized="1" />
  <metadata
     id="metadata2034">
    <rdf:RDF>
      <cc:Work
         rdf:about="">
        <dc:format>image/svg+xml</dc:format>
        <dc:type
           rdf:resource="http://purl.org/dc/dcmitype/StillImage" />
      </cc:Work>
    </rdf:RDF>
  </metadata>
  <g
     inkscape:label="Ebene 1"
     inkscape:groupmode="layer"
     id="layer1">
    <path
       id="path2331"
       style="fill:#051833;fill-opacity:1;stroke-width:0.232867;stroke-linecap:round;stroke-linejoin:round"
       d="M -0.30830752,-20.089229 V 77.73743 c 7.59e-5,-5e-5 1.735e-4,0 2.48e-4,0 0.57279968,-0.23357 1.14630378,-0.45547 1.72061152,-0.66615 0.574309,-0.21069 1.1494474,-0.41026 1.7251994,-0.59881 0.575769,-0.1885 1.152151,-0.36607 1.729318,-0.53314 0.577147,-0.16705 1.15514,-0.32357 1.733652,-0.46995 1.157005,-0.29269 2.3165076,-0.54472 3.4786346,-0.75881 1.162133,-0.2141 2.326779,-0.39027 3.493609,-0.53146 1.166845,-0.14118 2.335975,-0.24725 3.507137,-0.32124 1.171155,-0.074 2.344351,-0.11584 3.519436,-0.12844 1.175073,-0.0122 2.351928,0.004 3.530539,0.0476 1.178595,0.0435 2.358932,0.11286 3.540667,0.20612 1.181735,0.0932 2.36489,0.21022 3.549371,0.3478 1.184461,0.13755 2.370264,0.29589 3.557076,0.47205 1.186825,0.17623 2.374603,0.37019 3.563372,0.57928 1.188762,0.20906 2.378532,0.433 3.569149,0.66906 1.190623,0.23599 2.382082,0.48415 3.574222,0.74143 2.38428,0.51455 4.771461,1.06586 7.159797,1.63132 2.38833,0.56546 4.778048,1.14494 7.16775,1.715768 2.389695,0.570874 4.77938,1.133214 7.167754,1.663914 1.194174,0.26537 2.38786,0.52267 3.581221,0.76945 1.193348,0.24679 2.386384,0.48294 3.578566,0.70549 1.192182,0.2225 2.383551,0.4315 3.57423,0.62412 1.190664,0.1926 2.380557,0.36897 3.569393,0.52589 1.188822,0.15698 2.376709,0.29466 3.563364,0.41036 1.18664,0.1157 2.371981,0.20913 3.556115,0.27774 1.184134,0.0687 2.366887,0.11218 3.548162,0.12817 1.181273,0.0159 2.361133,0.004 3.539223,-0.0383 0.58001,-0.021 1.15783,-0.0541 1.73365,-0.0985 0.57583,-0.0443 1.14961,-0.10039 1.721591,-0.16674 1.14394,-0.13278 2.28048,-0.30784 3.41107,-0.51894 1.13059,-0.21106 2.25514,-0.45804 3.3751,-0.73467 1.11995,-0.27664 2.23529,-0.58288 3.34735,-0.91234 1.11204,-0.32944 2.22093,-0.68203 3.32781,-1.05155 1.10685,-0.36958 2.21179,-0.75601 3.31621,-1.15296 2.20881,-0.793894 4.41537,-1.629732 6.63072,-2.456742 1.1077,-0.41353 2.21772,-0.82495 3.3312,-1.22754 1.11348,-0.4026 2.23044,-0.79642 3.35241,-1.17516 1.12199,-0.37872 2.24891,-0.74227 3.38211,-1.08415 1.13318,-0.34193 2.27265,-0.66219 3.41976,-0.95433 1.1471,-0.29215 2.30188,-0.55617 3.46561,-0.78563 1.16373,-0.22941 2.33639,-0.42426 3.51944,-0.57802 0.59152,-0.077 1.18577,-0.14356 1.78265,-0.19915 0.59686,-0.0555 1.19651,-0.0998 1.79906,-0.13251 0.60254,-0.0327 1.20787,-0.0532 1.81643,-0.0612 0.60856,-0.008 1.22035,-0.004 1.83525,0.0149 1.79139,0.053 3.5497,0.14091 5.27916,0.25632 1.72947,0.11543 3.43003,0.25829 5.10537,0.42166 1.67536,0.16332 3.32549,0.34696 4.95454,0.54378 1.62905,0.19677 3.23702,0.40666 4.82758,0.62244 3.18112,0.43151 6.293,0.88651 9.36698,1.30694 1.53699,0.21018 3.06454,0.41189 4.58647,0.5976 1.52191,0.1857 3.03825,0.35556 4.5529,0.50226 1.51467,0.14665 3.0276,0.27024 4.54278,0.3637 1.51521,0.0935 3.03257,0.15669 4.5563,0.18247 0.76188,0.0135 1.52542,0.0164 2.29095,0.009 0.76551,-0.007 1.53309,-0.0233 2.30324,-0.0516 0.77016,-0.028 1.54289,-0.0676 2.3187,-0.11896 0.77581,-0.0513 1.55459,-0.11475 2.33704,-0.19117 0.78243,-0.0764 1.56842,-0.16561 2.35851,-0.26883 0.39806,-0.052 0.80032,-0.11855 1.2005,-0.17766 v -96.018849 z" />
    <path
       id="path2611"
       style="color:#000000;font-style:normal;font-variant:normal;font-weight:normal;font-stretch:normal;font-size:medium;line-height:normal;font-family:sans-serif;font-variant-ligatures:normal;font-variant-position:normal;font-variant-caps:normal;font-variant-numeric:normal;font-variant-alternates:normal;font-variant-east-asian:normal;font-feature-settings:normal;font-variation-settings:normal;text-indent:0;text-align:start;text-decoration:none;text-decoration-line:none;text-decoration-style:solid;text-decoration-color:#000000;letter-spacing:normal;word-spacing:normal;text-transform:none;writing-mode:lr-tb;direction:ltr;text-orientation:mixed;dominant-baseline:auto;baseline-shift:baseline;text-anchor:start;white-space:normal;shape-padding:0;shape-margin:0;inline-size:0;clip-rule:nonzero;display:inline;overflow:visible;visibility:visible;isolation:auto;mix-blend-mode:normal;color-interpolation:sRGB;color-interpolation-filters:linearRGB;solid-color:#000000;solid-opacity:1;vector-effect:none;fill:#ffffff;fill-opacity:1;fill-rule:nonzero;stroke:none;stroke-width:0.807558;stroke-linecap:butt;stroke-linejoin:miter;stroke-miterlimit:4;stroke-dasharray:none;stroke-dashoffset:0;stroke-opacity:1;color-rendering:auto;image-rendering:auto;shape-rendering:auto;text-rendering:auto;enable-background:accumulate;stop-color:#000000"
       d="m -0.44600192,46.3194 v 0.8073 H 1.6128518 v -0.8073 z m 0,2.38541 v 0.80823 H 1.6128518 v -0.80823 z m 0,-40.5594603 v 0.80822 H 1.6128518 v -0.80822 z m 0,2.3863403 v 0.80729 H 1.6128518 v -0.80729 z m 0,-26.24512 v 0.80823 H 1.6128518 v -0.80823 z m 0,-2.38542 v 0.8073 H 1.6128518 v -0.8073 z m 0,-2.385409 v 0.807299 H 1.6128518 v -0.807299 z m 0,7.157169 v 0.80729 H 4.2016964 v -0.80729 z m 0,7.15717 v 0.80823 H 1.6128518 v -0.80823 z m 0,-4.77176 v 0.80823 H 1.6128518 v -0.80823 z m 0,2.38634 v 0.80731 H 1.6128518 v -0.80731 z m 0,11.9289397 v 0.80822 H 1.6128518 v -0.80822 z m 0,-2.38543003 V 1.7954797 H 1.6128518 V 0.98816967 Z m 0,-2.38633967 v 0.80822997 H 1.6128518 V -1.39817 Z m 0,7.1581097 v 0.80729 H 4.2016964 v -0.80729 z m 0,-9.5435197 v 0.8073 H 4.2016964 v -0.8073 z m 0,16.70069 V 13.7244 H 1.6128518 v -0.80729 z m 0,9.5435 v 0.80731 H 1.6128518 v -0.80731 z m 0,-2.38541 v 0.8073 H 1.6128518 v -0.8073 z m 0,-2.38634 v 0.80729 H 1.6128518 v -0.80729 z m 0,7.15811 v 0.80729 H 4.2016964 v -0.80729 z m 0,-9.54352 v 0.8073 H 4.2016964 v -0.8073 z m 0,16.70067 v 0.8073 H 1.6128518 v -0.8073 z m 0,-4.77175 v 0.8073 H 1.6128518 v -0.8073 z m 0,2.38541 v 0.80823 H 1.6128518 v -0.80823 z m 0,11.92986 v 0.80729 H 1.6128518 v -0.80729 z m 0,-2.38634 v 0.80822 H 1.6128518 V 39.1613 Z m 0,-2.38541 v 0.80729 H 1.6128518 v -0.80729 z m 0,7.15716 v 0.80824 H 4.2016964 v -0.80824 z m 0,-9.5435 v 0.80822 H 4.2016964 v -0.80822 z m 0,16.7016 v 0.8073 H 1.6128518 v -0.8073 z m 0,9.54352 v 0.80729 H 1.6128518 v -0.80729 z m 0,-2.38635 v 0.8073 H 1.6128518 v -0.8073 z m 0,-2.3854 v 0.80729 H 1.6128518 v -0.80729 z m 0,7.15715 v 0.8073 H 4.2016964 v -0.8073 z m 0,-9.54351 v 0.80731 H 4.2016964 v -0.80731 z m 0,16.70069 v 0.80822 H 1.6128518 v -0.80822 z m 0,-4.77083 v 0.8073 H 1.6128518 v -0.8073 z m 0,2.38542 v 0.80729 H 1.6128518 v -0.80729 z m 0,9.54351 v 0.80729 H 1.6128518 v -0.80729 z m 0,-2.38635 v 0.80824 H 1.6128518 V 74.949 Z m 0,-2.38541 v 0.80729 H 4.2016964 v -0.80729 z" />
    <path
       style="fill:none;stroke:#094bac;stroke-width:7;stroke-linecap:butt;stroke-linejoin:miter;stroke-miterlimit:4;stroke-dasharray:none;stroke-opacity:1"
       d="m 265.03664,1584.4096 c 75.8145,-68.5032 160.05413,-4.1876 241.04781,-7.1058 39.96417,-1.4397 74.90124,-29.6615 116.7997,-28.4226 61.26183,1.8116 104.62087,22.7053 164.51268,-0.7613"
       id="path2300"
       clip-path="url(#clipPath2349)"
       transform="matrix(0.46705,0,0,0.46705,-140.86841,-651.48707)" />
    <path
       style="fill:none;stroke:#0d6efd;stroke-width:12;stroke-linecap:butt;stroke-linejoin:miter;stroke-miterlimit:4;stroke-dasharray:none;stroke-opacity:1"
       d="m 241.74073,1553.0135 c 17.33482,-7.7051 37.91645,-11.6504 56.97186,-9.1754 27.24858,3.5392 45.04101,25.0532 74.10264,25.0734 31.82315,0.022 62.72219,-19.7953 94.8811,-16.7811 33.18133,3.1101 59.12481,21.5949 93.83094,20.1816 77.59715,-3.1597 144.20231,-51.6005 219.80536,-17.7855"
       id="path2306"
       sodipodi:nodetypes="cssssc"
       clip-path="url(#clipPath2343)"
       transform="matrix(0.46705,0,0,0.46705,-140.86841,-651.48707)" />
    <g
       id="g6333"
       transform="translate(110.65025,21.032691)" />
  </g>
</svg>
